<svg width="18" height="19" viewBox="0 0 18 19" fill="none" xmlns="http://www.w3.org/2000/svg">
  <path
    d="M8.11111 5.31679H9.88889V7.09456H8.11111V5.31679ZM8.11111 3.53901H9.88889V5.31679H8.11111V3.53901ZM8.11111 1.76123H9.88889V3.53901H8.11111V1.76123ZM8.11111 12.4279H9.88889V14.2057H8.11111V12.4279ZM8.11111 14.2057H9.88889V15.9835H8.11111V14.2057ZM8.11111 15.9835H9.88889V17.7612H8.11111V15.9835ZM11.6667 8.87234H13.4444V10.6501H11.6667V8.87234ZM13.4444 8.87234H15.2222V10.6501H13.4444V8.87234ZM15.2222 8.87234H17V10.6501H15.2222V8.87234ZM4.55556 8.87234H6.33333V10.6501H4.55556V8.87234ZM2.77778 8.87234H4.55556V10.6501H2.77778V8.87234ZM1 8.87234H2.77778V10.6501H1V8.87234ZM4.55556 5.31679H6.33333V7.09456H4.55556V5.31679ZM2.77778 3.53901H4.55556V5.31679H2.77778V3.53901ZM11.6667 5.31679H13.4444V7.09456H11.6667V5.31679ZM13.4444 3.53901H15.2222V5.31679H13.4444V3.53901ZM9.88889 7.09456H11.6667V8.87234H9.88889V7.09456ZM6.33333 7.09456H8.11111V8.87234H6.33333V7.09456ZM6.33333 10.6501H8.11111V12.4279H6.33333V10.6501ZM4.55556 12.4279H6.33333V14.2057H4.55556V12.4279ZM2.77778 14.2057H4.55556V15.9835H2.77778V14.2057ZM9.88889 10.6501H11.6667V12.4279H9.88889V10.6501ZM11.6667 12.4279H13.4444V14.2057H11.6667V12.4279ZM13.4444 14.2057H15.2222V15.9835H13.4444V14.2057Z"
    fill="#48E054"/>
</svg>
