<svg width="18" height="19" viewBox="0 0 18 19" fill="none" xmlns="http://www.w3.org/2000/svg">
  <path
    d="M1 10.6184H2.77778V12.3327H1V10.6184ZM1 8.90409H2.77778V10.6184H1V8.90409ZM1 7.1898H2.77778V8.90409H1V7.1898ZM6.33334 8.90409H8.11111V10.6184H6.33334V8.90409ZM4.55555 7.1898H6.33334V8.90409H4.55555V7.1898ZM4.55555 10.6184H6.33334V12.3327H4.55555V10.6184ZM9.88889 10.6184H11.6667V12.3327H9.88889V10.6184ZM11.6667 10.6184H13.4444V12.3327H11.6667V10.6184ZM15.2222 12.3327H17V14.0469H15.2222V12.3327ZM15.2222 10.6184H17V12.3327H15.2222V10.6184ZM15.2222 8.90409H17V10.6184H15.2222V8.90409ZM15.2222 7.1898H17V8.90409H15.2222V7.1898ZM15.2222 5.47551H17V7.1898H15.2222V5.47551ZM13.4444 3.76123H15.2222V5.47551H13.4444V3.76123ZM1 12.3327H2.77778V14.0469H1V12.3327ZM1 5.47551H2.77778V7.1898H1V5.47551ZM2.77778 3.76123H4.55555V5.47551H2.77778V3.76123ZM2.77778 14.0469H4.55555V15.7612H2.77778V14.0469ZM4.55555 14.0469H6.33334V15.7612H4.55555V14.0469ZM6.33334 14.0469H8.11111V15.7612H6.33334V14.0469ZM8.11111 14.0469H9.88889V15.7612H8.11111V14.0469ZM9.88889 14.0469H11.6667V15.7612H9.88889V14.0469ZM11.6667 14.0469H13.4444V15.7612H11.6667V14.0469ZM13.4444 14.0469H15.2222V15.7612H13.4444V14.0469ZM4.55555 3.76123H6.33334V5.47551H4.55555V3.76123ZM6.33334 3.76123H8.11111V5.47551H6.33334V3.76123ZM8.11111 3.76123H9.88889V5.47551H8.11111V3.76123ZM9.88889 3.76123H11.6667V5.47551H9.88889V3.76123ZM11.6667 3.76123H13.4444V5.47551H11.6667V3.76123Z"
    fill="#48E054"/>
</svg>
