<svg width="20" height="20" viewBox="0 0 20 20" fill="none" xmlns="http://www.w3.org/2000/svg">
  <circle cx="10" cy="10" r="10" fill="#F2C55C"/>
  <circle opacity="0.13" cx="10" cy="10" r="8" fill="#F0F1F2"/>
  <path
    d="M7.5 6C7.22386 6 7 6.22386 7 6.5V13.5C7 13.7761 7.22386 14 7.5 14C7.77614 14 8 13.7761 8 13.5V6.5C8 6.22386 7.77614 6 7.5 6Z"
    fill="white"/>
  <path
    d="M12.5 6C12.2239 6 12 6.22386 12 6.5V13.5C12 13.7761 12.2239 14 12.5 14C12.7761 14 13 13.7761 13 13.5V6.5C13 6.22386 12.7761 6 12.5 6Z"
    fill="white"/>
</svg>
