<svg width="122" height="31" viewBox="0 0 122 31" fill="none" xmlns="http://www.w3.org/2000/svg">
  <path
    d="M20.5792 10.2537H30.8329V11.9636C30.8329 23.9273 25.703 30.7612 12.0354 30.7612H10.3254V20.5074H12.0354C18.0142 20.5074 20.5792 17.9425 20.5792 11.9636V10.2537Z"
    fill="#48E054"/>
  <path d="M10.2537 10.2537H0V20.5074H10.2537V10.2537Z" fill="#48E054"/>
  <path d="M20.5074 0H10.2537V10.2537H20.5074V0Z" fill="#48E054"/>
  <path
    d="M42.839 23.4557H46.4442C47.1737 23.4557 47.8194 23.2942 48.3874 22.9833C48.9554 22.6665 49.3978 22.218 49.7147 21.6441C50.0315 21.0701 50.187 20.4184 50.187 19.689V2.85254H54.5695V19.9879C54.5695 21.4169 54.2407 22.7023 53.583 23.8383C52.9253 24.9743 52.0165 25.8651 50.8566 26.5109C49.6967 27.1566 48.3874 27.4794 46.9345 27.4794H42.833V23.4497L42.839 23.4557Z"
    fill="black"/>
  <path
    d="M73.9462 27.4846H69.9165V19.9871H71.0943C71.0943 21.5954 70.8193 22.9944 70.2692 24.1842C69.7192 25.374 68.93 26.2948 67.9016 26.9405C66.8733 27.5862 65.6655 27.9091 64.2665 27.9091C62.975 27.9091 61.845 27.6281 60.8765 27.066C59.9079 26.504 59.1546 25.6909 58.6045 24.6207C58.0604 23.5505 57.7854 22.283 57.7854 20.8002V9.47028H61.9407V20.1664C61.9407 21.0334 62.0902 21.7748 62.3831 22.3846C62.6761 22.9944 63.0946 23.4608 63.6387 23.7837C64.1828 24.1065 64.8464 24.2679 65.6177 24.2679C66.4368 24.2679 67.1662 24.0826 67.8 23.7119C68.4337 23.3412 68.924 22.827 69.2708 22.1634C69.6176 21.4997 69.7909 20.7464 69.7909 19.9034V9.47028H73.9462V27.4905V27.4846Z"
    fill="black"/>
  <path
    d="M77.4329 9.46554H81.4626V16.963H80.2668C80.2668 15.3547 80.5478 13.9557 81.1039 12.7659C81.6599 11.5761 82.4551 10.6553 83.4775 10.0096C84.4999 9.3639 85.7076 9.04105 87.0947 9.04105C88.3861 9.04105 89.5161 9.32205 90.4907 9.88406C91.4652 10.4461 92.2186 11.2652 92.7626 12.3294C93.3007 13.3996 93.5698 14.6671 93.5698 16.1499V27.4798H89.4324V16.7837C89.4324 15.9167 89.2829 15.1753 88.99 14.5655C88.697 13.9557 88.2725 13.4893 87.7225 13.1665C87.1724 12.8436 86.5147 12.6822 85.7494 12.6822C84.9303 12.6822 84.2009 12.8675 83.5672 13.2382C82.9334 13.6089 82.4431 14.1231 82.0964 14.7867C81.7496 15.4504 81.5762 16.2037 81.5762 17.0467V27.4798H77.4209V9.45957L77.4329 9.46554Z"
    fill="black"/>
  <path d="M96.4517 2.85254H100.888V6.88229H96.4517V2.85254ZM96.5952 9.46515H100.75V27.4854H96.5952V9.46515Z"
        fill="black"/>
  <path
    d="M107.482 26.6906C106.065 25.8835 104.947 24.7535 104.139 23.3126C103.332 21.8717 102.926 20.2454 102.926 18.4398C102.926 16.6342 103.332 15.0677 104.151 13.6388C104.965 12.2098 106.089 11.0858 107.512 10.2667C108.935 9.44761 110.519 9.04105 112.253 9.04105C113.987 9.04105 115.619 9.44163 116.994 10.2368C118.375 11.032 119.451 12.1441 120.223 13.573C120.994 15.002 121.382 16.6282 121.382 18.4577V19.4622H107.093L107.129 18.5654C107.129 19.7492 107.344 20.7895 107.781 21.6863C108.217 22.5831 108.815 23.2767 109.586 23.761C110.357 24.2453 111.248 24.4904 112.271 24.4904C113.162 24.4904 113.957 24.323 114.656 23.9882C115.356 23.6534 115.93 23.1691 116.39 22.5353H120.856C120.408 23.6354 119.78 24.5861 118.967 25.3872C118.154 26.1824 117.173 26.8042 116.025 27.2407C114.883 27.6831 113.622 27.8983 112.253 27.8983C110.495 27.8983 108.905 27.4918 107.482 26.6846V26.6906ZM107.093 16.7H117.245V18.3023C117.245 17.1424 117.042 16.12 116.629 15.2292C116.217 14.3443 115.637 13.6567 114.878 13.1724C114.118 12.6881 113.245 12.443 112.247 12.443C111.248 12.443 110.346 12.6822 109.574 13.1665C108.803 13.6448 108.199 14.3264 107.769 15.1993C107.338 16.0722 107.129 17.0826 107.129 18.2365L107.093 16.7059V16.7Z"
    fill="black"/>
</svg>
