<svg width="16" height="17" viewBox="0 0 16 17" fill="none" xmlns="http://www.w3.org/2000/svg">
  <g id="general / right">
    <path id="Union" fill-rule="evenodd" clip-rule="evenodd"
          d="M9.85375 12.6148C9.65848 12.81 9.3419 12.81 9.14664 12.6148C8.95138 12.4195 8.95138 12.1029 9.14664 11.9077L12.2931 8.76123L2.49609 8.76123C2.21995 8.76123 1.99609 8.53737 1.99609 8.26123C1.99609 7.98509 2.21995 7.76123 2.49609 7.76123L12.2931 7.76123L9.14664 4.61478C8.95138 4.41952 8.95138 4.10294 9.14664 3.90768C9.3419 3.71241 9.65848 3.71241 9.85375 3.90768L13.8537 7.90768C13.9475 8.00144 14.0002 8.12862 14.0002 8.26123C14.0002 8.39384 13.9475 8.52102 13.8537 8.61478L9.85375 12.6148Z"
          fill="#AFDBB8"/>
  </g>
</svg>
