<svg width="20" height="20" viewBox="0 0 20 20" fill="none" xmlns="http://www.w3.org/2000/svg">
  <circle cx="10" cy="10" r="10" fill="#3574F0"/>
  <circle cx="9.8002" cy="16.15" r="0.85" fill="#2B2D30"/>
  <path
    d="M9.97987 10.2513C10.2044 10.0139 10.4982 9.73622 10.8604 9.41844C11.2327 9.09036 11.5275 8.80791 11.746 8.57075L11.7469 8.56973C11.9665 8.33799 12.1505 8.0594 12.2984 7.73275L12.2991 7.73133C12.4503 7.4108 12.527 7.0457 12.527 6.634C12.527 6.13537 12.4225 5.69607 12.216 5.31349C12.0096 4.93099 11.719 4.63442 11.3429 4.42208L11.3418 4.42149C10.9661 4.20334 10.5341 4.093 10.043 4.093C9.53287 4.093 9.08169 4.20651 8.68677 4.43124C8.29821 4.65595 7.99464 4.97134 7.77523 5.3796C7.67298 5.57247 7.59497 5.77918 7.5415 6C7.51668 6.10252 7.49715 6.20808 7.48294 6.31671C7.44343 6.61868 7.20764 6.867 6.90309 6.867H6.77921C6.47853 6.867 6.23806 6.61717 6.24954 6.31671C6.2598 6.2093 6.27384 6.10373 6.29164 6C6.36526 5.57119 6.50338 5.17391 6.70665 4.80885C7.03251 4.23534 7.48664 3.7906 8.06667 3.47769C8.64687 3.15834 9.30974 3 10.0525 3C10.7759 3 11.4196 3.15185 11.9809 3.45842C12.5477 3.75827 12.989 4.17975 13.3026 4.72194C13.6165 5.26467 13.772 5.88719 13.772 6.5865C13.772 7.13576 13.6815 7.62465 13.4979 8.05106C13.3169 8.47121 13.0927 8.82638 12.8241 9.11469C12.5672 9.39722 12.2285 9.71973 11.8091 10.082C11.4744 10.3725 11.214 10.6141 11.0269 10.8075C10.8508 10.9897 10.7014 11.2028 10.579 11.4477L10.5785 11.4486C10.4597 11.6802 10.3995 11.9398 10.3995 12.2295C10.3995 12.4946 10.1846 12.7095 9.91952 12.7095H9.72002C9.42869 12.7095 9.19252 12.4733 9.19252 12.182C9.19252 11.7768 9.26774 11.4104 9.42049 11.085C9.57025 10.766 9.7566 10.4877 9.97987 10.2513Z"
    fill="#2B2D30"/>
</svg>
