<svg width="18" height="19" viewBox="0 0 18 19" fill="none" xmlns="http://www.w3.org/2000/svg">
  <path
    d="M3.27272 13.6501H4.90909V15.2057H3.27272V13.6501ZM1.63636 12.0946H3.27272V13.6501H1.63636V12.0946ZM0 10.539H1.63636V12.0946H0V10.539ZM1.63636 8.98345H3.27272V10.539H1.63636V8.98345ZM3.27272 7.4279H4.90909V8.98345H3.27272V7.4279ZM16.3636 7.4279H18V8.98345H16.3636V7.4279ZM14.7273 5.87234H16.3636V7.4279H14.7273V5.87234ZM13.0909 4.31679H14.7273V5.87234H13.0909V4.31679ZM14.7273 8.98345H16.3636V10.539H14.7273V8.98345ZM13.0909 10.539H14.7273V12.0946H13.0909V10.539ZM9.81818 4.31679H11.4545V5.87234H9.81818V4.31679ZM9.81818 2.76123H11.4545V4.31679H9.81818V2.76123ZM9.81818 5.87234H11.4545V7.4279H9.81818V5.87234ZM8.18182 7.4279H9.81818V8.98345H8.18182V7.4279ZM8.18182 8.98345H9.81818V10.539H8.18182V8.98345ZM8.18182 10.539H9.81818V12.0946H8.18182V10.539ZM6.54546 12.0946H8.18182V13.6501H6.54546V12.0946ZM6.54546 13.6501H8.18182V15.2057H6.54546V13.6501ZM6.54546 15.2057H8.18182V16.7612H6.54546V15.2057Z"
    fill="#48E054"/>
</svg>
