<svg width="122" height="31" viewBox="0 0 122 31" fill="none" xmlns="http://www.w3.org/2000/svg">
<path d="M20.5794 10.2539H30.8331V11.9639C30.8331 23.9275 25.7033 30.7614 12.0356 30.7614H10.3257V20.5076H12.0356C18.0145 20.5076 20.5794 17.9427 20.5794 11.9639V10.2539Z" fill="#48E054"/>
<path d="M10.2537 10.2539H0V20.5076H10.2537V10.2539Z" fill="#48E054"/>
<path d="M20.5076 0H10.2539V10.2537H20.5076V0Z" fill="#48E054"/>
<path d="M42.839 23.4557H46.4442C47.1737 23.4557 47.8194 23.2942 48.3874 22.9833C48.9554 22.6665 49.3978 22.218 49.7147 21.6441C50.0315 21.0701 50.187 20.4184 50.187 19.689V2.85254H54.5695V19.9879C54.5695 21.4169 54.2407 22.7023 53.583 23.8383C52.9253 24.9743 52.0165 25.8651 50.8566 26.5109C49.6967 27.1566 48.3874 27.4794 46.9345 27.4794H42.833V23.4497L42.839 23.4557Z" fill="white"/>
<path d="M73.946 27.4845H69.9162V19.987H71.0941C71.0941 21.5953 70.8191 22.9944 70.269 24.1842C69.7189 25.374 68.9297 26.2947 67.9014 26.9404C66.873 27.5861 65.6653 27.909 64.2662 27.909C62.9748 27.909 61.8448 27.628 60.8762 27.066C59.9077 26.504 59.1543 25.6908 58.6043 24.6206C58.0602 23.5504 57.7852 22.2829 57.7852 20.8001V9.47021H61.9405V20.1664C61.9405 21.0333 62.0899 21.7747 62.3829 22.3845C62.6759 22.9944 63.0944 23.4607 63.6385 23.7836C64.1825 24.1064 64.8462 24.2679 65.6175 24.2679C66.4366 24.2679 67.166 24.0825 67.7997 23.7118C68.4335 23.3412 68.9238 22.827 69.2705 22.1633C69.6173 21.4997 69.7907 20.7463 69.7907 19.9033V9.47021H73.946V27.4905V27.4845Z" fill="white"/>
<path d="M77.4329 9.46551H81.4626V16.963H80.2668C80.2668 15.3547 80.5478 13.9556 81.1039 12.7658C81.6599 11.576 82.4551 10.6553 83.4775 10.0096C84.4999 9.36387 85.7076 9.04102 87.0947 9.04102C88.3861 9.04102 89.5161 9.32202 90.4907 9.88403C91.4652 10.446 92.2186 11.2651 92.7626 12.3294C93.3007 13.3996 93.5698 14.6671 93.5698 16.1499V27.4798H89.4324V16.7836C89.4324 15.9167 89.2829 15.1753 88.99 14.5655C88.697 13.9556 88.2725 13.4893 87.7225 13.1664C87.1724 12.8436 86.5147 12.6821 85.7494 12.6821C84.9303 12.6821 84.2009 12.8675 83.5672 13.2382C82.9334 13.6089 82.4431 14.123 82.0964 14.7867C81.7496 15.4503 81.5762 16.2037 81.5762 17.0467V27.4798H77.4209V9.45954L77.4329 9.46551Z" fill="white"/>
<path d="M96.4517 2.85254H100.888V6.88229H96.4517V2.85254ZM96.5952 9.46515H100.75V27.4854H96.5952V9.46515Z" fill="white"/>
<path d="M107.482 26.6906C106.065 25.8834 104.947 24.7534 104.139 23.3125C103.332 21.8716 102.926 20.2454 102.926 18.4398C102.926 16.6342 103.332 15.0677 104.151 13.6388C104.965 12.2098 106.089 11.0858 107.512 10.2667C108.935 9.44758 110.519 9.04102 112.253 9.04102C113.987 9.04102 115.619 9.4416 116.994 10.2368C118.375 11.032 119.451 12.144 120.223 13.573C120.994 15.0019 121.382 16.6282 121.382 18.4577V19.4622H107.093L107.129 18.5653C107.129 19.7491 107.344 20.7895 107.781 21.6863C108.217 22.5831 108.815 23.2767 109.586 23.761C110.357 24.2452 111.248 24.4904 112.271 24.4904C113.162 24.4904 113.957 24.323 114.656 23.9881C115.356 23.6533 115.93 23.169 116.39 22.5353H120.856C120.408 23.6354 119.78 24.586 118.967 25.3872C118.154 26.1824 117.173 26.8042 116.025 27.2406C114.883 27.6831 113.622 27.8983 112.253 27.8983C110.495 27.8983 108.905 27.4918 107.482 26.6846V26.6906ZM107.093 16.6999H117.245V18.3023C117.245 17.1424 117.042 16.12 116.629 15.2291C116.217 14.3443 115.637 13.6567 114.878 13.1724C114.118 12.6881 113.245 12.443 112.247 12.443C111.248 12.443 110.346 12.6821 109.574 13.1664C108.803 13.6447 108.199 14.3263 107.769 15.1992C107.338 16.0721 107.129 17.0826 107.129 18.2365L107.093 16.7059V16.6999Z" fill="white"/>
</svg>
